<?xml version="1.0" standalone="no"?>
<!DOCTYPE svg PUBLIC "-//W3C//DTD SVG 20010904//EN"
 "http://www.w3.org/TR/2001/REC-SVG-20010904/DTD/svg10.dtd">
<svg version="1.0" xmlns="http://www.w3.org/2000/svg"
 width="428.000000pt" height="426.000000pt" viewBox="0 0 428.000000 426.000000"
 preserveAspectRatio="xMidYMid meet">

<g transform="translate(0.000000,426.000000) scale(0.100000,-0.100000)"
fill="#000000" stroke="none">
<path d="M568 3013 c-2 -93 -2 -171 0 -175 2 -5 514 -8 1138 -8 l1134 0 0 175
0 175 -1135 0 -1134 0 -3 -167z"/>
<path d="M3030 2565 l-435 -435 438 -437 437 -438 122 123 123 122 -308 308
c-169 169 -307 314 -307 322 0 8 138 153 307 322 l307 307 -119 121 c-65 66
-122 120 -125 120 -3 0 -201 -196 -440 -435z"/>
<path d="M567 2300 c-1 -3 -1 -80 1 -172 l3 -168 869 0 870 0 2 160 c0 88 1
165 2 170 1 11 -1744 20 -1747 10z"/>
<path d="M568 1263 c-2 -93 -2 -171 0 -175 2 -5 514 -8 1138 -8 l1134 0 0 175
0 175 -1135 0 -1134 0 -3 -167z"/>
</g>
</svg>
