<?xml version="1.0" standalone="no"?>
<!DOCTYPE svg PUBLIC "-//W3C//DTD SVG 20010904//EN"
 "http://www.w3.org/TR/2001/REC-SVG-20010904/DTD/svg10.dtd">
<svg version="1.0" xmlns="http://www.w3.org/2000/svg"
 width="428.000000pt" height="424.000000pt" viewBox="0 0 428.000000 424.000000"
 preserveAspectRatio="xMidYMid meet">

<g transform="translate(0.000000,424.000000) scale(0.100000,-0.100000)"
fill="#000000" stroke="none">
<path d="M568 3003 c-2 -93 -2 -171 0 -175 2 -5 709 -8 1572 -8 l1569 0 3 168
c2 92 2 170 0 175 -2 4 -709 7 -1572 7 l-1569 0 -3 -167z"/>
<path d="M567 2290 c-1 -3 -1 -80 1 -172 l3 -168 1559 -1 c858 -1 1565 -2
1571 -3 9 -1 11 47 10 169 -1 93 -3 171 -5 172 -5 5 -3138 8 -3139 3z"/>
<path d="M568 1253 c-2 -93 -2 -171 0 -175 2 -5 709 -8 1572 -8 l1569 0 3 168
c2 92 2 170 0 175 -2 4 -709 7 -1572 7 l-1569 0 -3 -167z"/>
</g>
</svg>
