<?xml version="1.0" standalone="no"?>
<!DOCTYPE svg PUBLIC "-//W3C//DTD SVG 20010904//EN"
 "http://www.w3.org/TR/2001/REC-SVG-20010904/DTD/svg10.dtd">
<svg version="1.0" xmlns="http://www.w3.org/2000/svg"
 width="426.000000pt" height="426.000000pt" viewBox="0 0 426.000000 426.000000"
 preserveAspectRatio="xMidYMid meet">

<g transform="translate(0.000000,426.000000) scale(0.100000,-0.100000)"
fill="#000000" stroke="none">
<path d="M2000 3874 c-344 -39 -543 -102 -795 -252 -153 -91 -351 -271 -477
-434 -178 -230 -296 -512 -339 -813 -17 -114 -17 -373 0 -490 110 -770 716
-1376 1486 -1486 117 -17 376 -17 490 0 301 43 583 161 813 339 373 289 607
688 673 1147 17 114 17 373 0 490 -108 759 -706 1367 -1456 1481 -93 14 -334
25 -395 18z m278 -354 c440 -48 835 -310 1061 -705 235 -411 238 -952 7 -1358
-282 -495 -797 -769 -1349 -719 -342 31 -640 173 -878 419 -233 239 -361 519
-391 850 -38 414 110 820 406 1113 305 303 714 446 1144 400z"/>
<path d="M1365 2880 l-120 -120 315 -315 315 -315 -315 -315 -315 -315 123
-122 122 -123 315 315 315 315 315 -315 315 -315 122 123 123 122 -315 315
-315 315 315 315 315 315 -123 122 -122 123 -315 -315 -315 -315 -313 313
c-171 171 -314 312 -317 312 -3 0 -59 -54 -125 -120z"/>
</g>
</svg>
