<?xml version="1.0" standalone="no"?>
<!DOCTYPE svg PUBLIC "-//W3C//DTD SVG 20010904//EN"
 "http://www.w3.org/TR/2001/REC-SVG-20010904/DTD/svg10.dtd">
<svg version="1.0" xmlns="http://www.w3.org/2000/svg"
 width="426.000000pt" height="426.000000pt" viewBox="0 0 426.000000 426.000000"
 preserveAspectRatio="xMidYMid meet">

<g transform="translate(0.000000,426.000000) scale(0.100000,-0.100000)"
fill="#000000" stroke="none">
<path d="M1015 3230 l-120 -120 490 -490 490 -490 -490 -490 -490 -490 123
-122 123 -122 489 489 490 490 489 -489 489 -489 123 122 124 121 -490 490
-490 490 490 490 489 489 -122 123 -122 123 -490 -490 -490 -490 -488 488
c-268 268 -489 487 -492 487 -3 0 -59 -54 -125 -120z"/>
</g>
</svg>
