<?xml version="1.0" standalone="no"?>
<!DOCTYPE svg PUBLIC "-//W3C//DTD SVG 20010904//EN"
 "http://www.w3.org/TR/2001/REC-SVG-20010904/DTD/svg10.dtd">
<svg version="1.0" xmlns="http://www.w3.org/2000/svg"
 width="213.000000pt" height="212.000000pt" viewBox="0 0 213.000000 212.000000"
 preserveAspectRatio="xMidYMid meet">

<g transform="translate(0.000000,212.000000) scale(0.100000,-0.100000)"
fill="#000000" stroke="none">
<path d="M992 1778 c-63 -59 -180 -164 -457 -413 -62 -55 -162 -145 -223 -200
l-112 -100 130 -3 130 -3 0 -349 0 -350 260 0 260 0 0 260 0 260 90 0 90 0 0
-260 0 -260 260 0 260 0 0 350 0 350 126 0 c69 0 124 4 122 8 -1 5 -97 94
-213 198 -115 104 -306 276 -423 382 -117 106 -217 192 -223 192 -5 0 -40 -28
-77 -62z m303 -366 l215 -194 -2 -341 -3 -342 -85 0 -85 0 -3 263 -2 262 -260
0 -260 0 0 -260 0 -260 -23 -5 c-12 -3 -52 -5 -87 -3 l-65 3 -3 341 -2 341
217 196 c120 108 221 195 225 194 4 -1 104 -89 223 -195z"/>
</g>
</svg>
