<?xml version="1.0" standalone="no"?>
<!DOCTYPE svg PUBLIC "-//W3C//DTD SVG 20010904//EN"
 "http://www.w3.org/TR/2001/REC-SVG-20010904/DTD/svg10.dtd">
<svg version="1.0" xmlns="http://www.w3.org/2000/svg"
 width="213.000000pt" height="212.000000pt" viewBox="0 0 213.000000 212.000000"
 preserveAspectRatio="xMidYMid meet">

<g transform="translate(0.000000,212.000000) scale(0.100000,-0.100000)"
fill="#000000" stroke="none">
<path d="M961 1929 c-331 -41 -609 -260 -721 -568 -70 -190 -72 -385 -8 -578
156 -471 667 -712 1144 -539 34 13 97 45 139 71 305 190 460 531 405 885 -56
354 -338 648 -685 714 -106 20 -196 25 -274 15z m294 -199 c121 -38 202 -87
296 -180 94 -94 153 -192 185 -310 25 -92 25 -283 0 -365 -93 -305 -367 -514
-673 -515 -316 -1 -600 216 -680 520 -22 82 -24 274 -4 345 39 139 101 244
197 336 107 101 201 151 349 185 83 19 240 11 330 -16z"/>
<path d="M977 1494 c-4 -4 -7 -45 -7 -91 l0 -84 88 3 87 3 0 85 0 85 -80 3
c-45 1 -84 0 -88 -4z"/>
<path d="M970 885 l0 -266 88 3 87 3 3 263 2 262 -90 0 -90 0 0 -265z"/>
</g>
</svg>
