<?xml version="1.0" standalone="no"?>
<!DOCTYPE svg PUBLIC "-//W3C//DTD SVG 20010904//EN"
 "http://www.w3.org/TR/2001/REC-SVG-20010904/DTD/svg10.dtd">
<svg version="1.0" xmlns="http://www.w3.org/2000/svg"
 width="214.000000pt" height="212.000000pt" viewBox="0 0 214.000000 212.000000"
 preserveAspectRatio="xMidYMid meet">

<g transform="translate(0.000000,212.000000) scale(0.100000,-0.100000)"
fill="#000000" stroke="none">
<path d="M979 1747 c-100 -29 -175 -91 -226 -190 -24 -45 -27 -64 -28 -142 0
-82 3 -96 33 -157 38 -77 92 -130 171 -166 47 -22 70 -27 141 -27 104 0 174
29 245 100 71 71 100 141 100 245 0 71 -5 94 -27 142 -33 72 -103 142 -173
174 -66 30 -170 40 -236 21z m198 -193 c48 -38 73 -87 73 -141 0 -163 -186
-246 -303 -135 -41 39 -57 74 -57 127 0 113 80 189 192 182 46 -3 65 -9 95
-33z"/>
<path d="M860 949 c-250 -53 -413 -139 -471 -251 -16 -32 -19 -59 -19 -188 l0
-150 700 0 700 0 0 138 c0 75 -5 154 -10 174 -56 200 -546 351 -900 277z m448
-175 c134 -38 199 -65 260 -111 30 -22 32 -28 32 -81 l0 -57 -488 1 c-268 1
-506 2 -529 2 l-43 2 0 54 c0 50 3 57 33 80 78 60 268 122 407 134 104 9 251
-2 328 -24z"/>
</g>
</svg>
