<?xml version="1.0" standalone="no"?>
<!DOCTYPE svg PUBLIC "-//W3C//DTD SVG 20010904//EN"
 "http://www.w3.org/TR/2001/REC-SVG-20010904/DTD/svg10.dtd">
<svg version="1.0" xmlns="http://www.w3.org/2000/svg"
 width="438.000000pt" height="422.000000pt" viewBox="0 0 438.000000 422.000000"
 preserveAspectRatio="xMidYMid meet" fill-opacity="0">
<!-- <rect width="100%" height="100%" fill-opacity="0" /> -->
<g transform="translate(0.000000,422.000000) scale(0.100000,-0.100000)"
fill="#000000" stroke="none" fill-opacity="1">
<path d="M2015 3674 c-372 -52 -670 -197 -925 -453 -138 -138 -217 -246 -298
-406 -118 -236 -164 -432 -163 -691 1 -277 50 -493 166 -723 220 -438 621
-741 1110 -838 138 -28 474 -25 609 5 326 72 573 207 801 436 210 212 352 471
423 771 23 99 26 130 27 315 0 113 -3 213 -7 222 -6 15 -23 2 -95 -70 -250
-251 -565 -340 -910 -258 -282 66 -551 306 -649 578 -92 255 -79 517 37 751
57 114 92 162 190 259 61 60 85 90 76 95 -13 8 -340 14 -392 7z"/>
</g>
</svg>
