<?xml version="1.0" standalone="no"?>
<!DOCTYPE svg PUBLIC "-//W3C//DTD SVG 20010904//EN"
 "http://www.w3.org/TR/2001/REC-SVG-20010904/DTD/svg10.dtd">
<svg version="1.0" xmlns="http://www.w3.org/2000/svg"
 width="448.000000pt" height="432.000000pt" viewBox="0 0 448.000000 432.000000"
 preserveAspectRatio="xMidYMid meet">

<g transform="translate(0.000000,432.000000) scale(0.100000,-0.100000)"
fill="#000000" stroke="none">
<path d="M2165 4056 c-41 -18 -83 -69 -90 -109 -4 -18 -5 -130 -3 -249 3 -200
5 -219 24 -244 37 -51 70 -68 137 -72 52 -3 67 0 96 20 75 51 76 52 79 317 3
233 3 237 -20 270 -37 55 -71 74 -135 78 -35 2 -70 -2 -88 -11z"/>
<path d="M990 3481 c-82 -43 -121 -152 -82 -227 20 -38 212 -235 262 -268 15
-10 45 -16 81 -16 61 0 105 22 142 72 21 29 34 111 23 154 -10 37 -231 262
-281 285 -51 24 -101 24 -145 0z"/>
<path d="M3345 3481 c-46 -21 -260 -235 -275 -276 -39 -103 24 -218 128 -232
86 -12 106 -1 238 129 135 132 161 175 151 248 -7 53 -49 107 -101 131 -52 23
-90 24 -141 0z"/>
<path d="M2058 3005 c-344 -78 -604 -343 -674 -688 -24 -120 -15 -314 20 -420
98 -293 290 -485 583 -583 106 -35 300 -44 420 -20 352 71 618 337 689 689 24
120 15 314 -20 420 -98 293 -290 485 -583 583 -66 22 -100 27 -223 30 -104 3
-164 -1 -212 -11z"/>
<path d="M415 2306 c-68 -30 -103 -103 -92 -188 6 -48 30 -84 77 -115 32 -22
41 -23 265 -23 224 0 233 1 265 23 59 40 75 71 75 147 0 74 -14 103 -69 144
-26 20 -43 21 -259 23 -178 2 -239 0 -262 -11z"/>
<path d="M3565 2306 c-37 -16 -83 -68 -91 -102 -11 -41 2 -124 23 -152 10 -14
32 -35 47 -46 26 -20 41 -21 271 -21 230 0 245 1 271 21 51 37 68 70 72 137 3
52 0 67 -20 96 -51 75 -53 76 -311 78 -178 2 -239 0 -262 -11z"/>
<path d="M1173 1314 c-53 -27 -258 -244 -273 -288 -27 -82 13 -170 94 -207 48
-22 67 -23 121 -8 31 9 67 38 157 127 65 63 124 130 133 148 35 75 11 166 -57
217 -37 28 -131 34 -175 11z"/>
<path d="M3139 1307 c-55 -37 -79 -81 -79 -146 0 -36 6 -66 16 -81 33 -50 230
-242 268 -262 138 -71 299 91 227 230 -19 36 -213 234 -261 266 -38 25 -129
22 -171 -7z"/>
<path d="M2165 906 c-36 -15 -82 -67 -91 -100 -3 -12 -4 -124 -2 -248 3 -252
4 -255 79 -306 29 -20 44 -23 96 -20 67 4 100 21 137 72 20 26 21 41 21 271 0
230 -1 245 -21 271 -36 50 -70 67 -131 71 -35 2 -70 -2 -88 -11z"/>
</g>
</svg>
